<svg xmlns="http://www.w3.org/2000/svg" width="29.836" height="22.024" viewBox="0 0 29.836 22.024">
  <g id="diningareas-icon" transform="translate(-89.369 -260.801)">
    <path id="Path_3184" data-name="Path 3184" d="M341.04,355.315a.577.577,0,1,0,1.155,0v-7h-1.123v7Z" transform="translate(-237.251 -73.068)" fill="#cc8b65"/>
    <path id="Path_3185" data-name="Path 3185" d="M243.992,272.112a.557.557,0,0,0-.545-.513H230.739a.575.575,0,0,0-.577.577V274.9a.575.575,0,0,0,.577.577h12.675a.575.575,0,0,0,.577-.577v-2.792Z" transform="translate(-132.726 -0.743)" fill="#cc8b65"/>
    <path id="Path_3186" data-name="Path 3186" d="M132.549,433.687a.571.571,0,0,0,.192.77.476.476,0,0,0,.289.064.529.529,0,0,0,.481-.289,8.753,8.753,0,0,0,.93-2.471h-1.155a7.256,7.256,0,0,1-.738,1.925Z" transform="translate(-40.632 -151.729)" fill="#cc8b65"/>
    <path id="Path_3187" data-name="Path 3187" d="M243.04,434.5a.577.577,0,1,0,1.155,0v-2.182h-1.123V434.5Z" transform="translate(-144.866 -152.257)" fill="#cc8b65"/>
    <path id="Path_3188" data-name="Path 3188" d="M98.751,276.247H93.778a7.928,7.928,0,0,0-3.562-5.359.567.567,0,1,0-.545.995,6.953,6.953,0,0,1,3.113,5.23,4.806,4.806,0,0,1,.064.674v.577a10.472,10.472,0,0,1-.1,1.155H99.3v-2.728a.562.562,0,0,0-.545-.546Z" transform="translate(0)" fill="#cc8b65"/>
    <path id="Path_3189" data-name="Path 3189" d="M535.018,433.687a.571.571,0,0,1-.192.77.477.477,0,0,1-.289.064.529.529,0,0,1-.481-.289,8.751,8.751,0,0,1-.93-2.471h1.155a7.255,7.255,0,0,0,.738,1.925Z" transform="translate(-418.329 -151.729)" fill="#cc8b65"/>
    <path id="Path_3190" data-name="Path 3190" d="M437.959,434.5a.577.577,0,1,1-1.155,0v-2.182h1.123V434.5Z" transform="translate(-327.527 -152.257)" fill="#cc8b65"/>
    <path id="Path_3191" data-name="Path 3191" d="M437.9,276.247h4.941a8.035,8.035,0,0,1,3.562-5.359.567.567,0,0,1,.545.995,6.953,6.953,0,0,0-3.113,5.23,4.8,4.8,0,0,0-.064.674v.577a10.484,10.484,0,0,0,.1,1.155h-6.514v-2.728a.562.562,0,0,1,.545-.546Z" transform="translate(-328.048)" fill="#cc8b65"/>
    <g id="Group_137" data-name="Group 137" transform="translate(-191.361 181.277)">
      <path id="Path_3198" data-name="Path 3198" d="M342.581,81.938V80.012a.488.488,0,1,0-.977,0v1.926a2.338,2.338,0,0,1,.434-.027,3.442,3.442,0,0,1,.542.027Z" transform="translate(-46.366)" fill="#cc8b65"/>
      <path id="Path_3199" data-name="Path 3199" d="M296.214,138.373a3.009,3.009,0,0,0-.516-.054,2.2,2.2,0,0,0-.434.027,2.831,2.831,0,0,0-2.388,2.794.486.486,0,0,0,.488.488h4.694a.486.486,0,0,0,.488-.488,2.9,2.9,0,0,0-2.333-2.767Z" transform="translate(0 -55.947)" fill="#cc8b65"/>
    </g>
  </g>
</svg>
