<svg id="exteriordimensions-icon" xmlns="http://www.w3.org/2000/svg" width="21.253" height="21.253" viewBox="0 0 21.253 21.253">
  <path id="Path_3192" data-name="Path 3192" d="M251.753,466.183a2.994,2.994,0,0,1-2.125-.879l-1.574-1.574a.731.731,0,1,1,1.034-1.034l1.574,1.574a1.545,1.545,0,0,0,2.182,0l1.574-1.574a.731.731,0,0,1,1.034,1.034l-1.574,1.574A3,3,0,0,1,251.753,466.183Z" transform="translate(-241.09 -444.93)" fill="#cc8b65"/>
  <path id="Path_3193" data-name="Path 3193" d="M254.934,3.706a.73.73,0,0,1-.517-.214l-1.574-1.574a1.545,1.545,0,0,0-2.182,0l-1.574,1.574a.731.731,0,0,1-1.034-1.034L249.627.883a3.009,3.009,0,0,1,4.25,0l1.574,1.574a.731.731,0,0,1-.517,1.248Z" transform="translate(-241.089 -0.005)" fill="#cc8b65"/>
  <path id="Path_3194" data-name="Path 3194" d="M332.415,32.433a.731.731,0,0,1-.731-.731V12.829a.731.731,0,0,1,1.462,0V31.7A.731.731,0,0,1,332.415,32.433Z" transform="translate(-321.752 -11.639)" fill="#cc8b65"/>
  <path id="Path_3195" data-name="Path 3195" d="M72.969,185.673a.729.729,0,0,1-.517-.214l-1.574-1.574a3.009,3.009,0,0,1,0-4.25l1.574-1.574a.731.731,0,0,1,1.034,1.034l-1.574,1.574a1.545,1.545,0,0,0,0,2.182l1.574,1.574a.731.731,0,0,1-.517,1.248Z" transform="translate(-69.999 -171.096)" fill="#cc8b65"/>
  <path id="Path_3196" data-name="Path 3196" d="M533.208,185.669a.731.731,0,0,1-.517-1.248l1.574-1.574a1.545,1.545,0,0,0,0-2.182l-1.574-1.574a.731.731,0,1,1,1.034-1.034l1.574,1.574a3.009,3.009,0,0,1,0,4.25l-1.574,1.574a.729.729,0,0,1-.517.214Z" transform="translate(-514.924 -171.093)" fill="#cc8b65"/>
  <path id="Path_3197" data-name="Path 3197" d="M101.707,263.14H82.835a.731.731,0,1,1,0-1.462h18.872a.731.731,0,1,1,0,1.462Z" transform="translate(-81.645 -251.747)" fill="#cc8b65"/>
</svg>
