<svg id="livingareas-icon" xmlns="http://www.w3.org/2000/svg" width="22.641" height="17.05" viewBox="0 0 22.641 17.05">
  <path id="Path_3182" data-name="Path 3182" d="M168,255.924v1.351h11.19v-1.351a2.3,2.3,0,0,1,1.984-2.509h.814v-1.705A2.3,2.3,0,0,0,180,249.2H167.186a2.3,2.3,0,0,0-1.984,2.509v1.705h.814c1.094-.032,1.984,1.094,1.984,2.509Z" transform="translate(-162.306 -249.2)" fill="#cc8b65"/>
  <path id="Path_3183" data-name="Path 3183" d="M136.551,348.316H134.1a.931.931,0,0,0-.834,1v2.574a.3.3,0,0,1-.269.322H119.181a.3.3,0,0,1-.269-.322v-2.574a.931.931,0,0,0-.834-1h-2.447a.931.931,0,0,0-.834,1v7.4a.931.931,0,0,0,.834,1h1.183v1.19a.727.727,0,0,0,.645.772h1.963a.727.727,0,0,0,.645-.772v-1.19h12.1v1.19a.727.727,0,0,0,.645.772h1.963a.727.727,0,0,0,.645-.772v-1.19h1.183a.931.931,0,0,0,.834-1v-7.4a1.014,1.014,0,0,0-.887-1Z" transform="translate(-114.798 -342.622)" fill="#cc8b65"/>
</svg>
