<svg xmlns="http://www.w3.org/2000/svg" width="14.252" height="10.18" viewBox="0 0 14.252 10.18">
  <path id="Path_420" data-name="Path 420" d="M12.725,0H1.527A1.527,1.527,0,0,0,0,1.527V8.653A1.527,1.527,0,0,0,1.527,10.18h11.2a1.527,1.527,0,0,0,1.527-1.527V1.527A1.527,1.527,0,0,0,12.725,0ZM10.562,5.263a.509.509,0,1,0-.793.639l.03.033,2.825,3.227H1.629L4.454,5.935a.509.509,0,1,0-.734-.7.361.361,0,0,0-.03.033L1.018,8.317V1.527l5.177,3.98a1.528,1.528,0,0,0,1.863,0l5.177-3.98v6.79ZM2.005,1.018H12.247l-4.81,3.7a.509.509,0,0,1-.621,0Z" fill="#cc8b65"/>
</svg>
