<svg xmlns="http://www.w3.org/2000/svg" width="14.252" height="14.276" viewBox="0 0 14.252 14.276">
  <path id="phone-icon" d="M10.747,16.277c-.049,0-.1,0-.157-.007A13.013,13.013,0,0,1,4.936,14.26a12.84,12.84,0,0,1-3.923-3.924A13,13,0,0,1-.992,4.669,1.868,1.868,0,0,1,.7,2.631c.056,0,.111-.008.167-.008H2.752A1.872,1.872,0,0,1,4.6,4.23,7.4,7.4,0,0,0,5,5.849a1.872,1.872,0,0,1-.422,1.97l-.448.449a9.343,9.343,0,0,0,2.855,2.856l.447-.447A1.873,1.873,0,0,1,9.4,10.254a7.392,7.392,0,0,0,1.611.4,1.869,1.869,0,0,1,1.612,1.888V14.4a1.868,1.868,0,0,1-1.861,1.873Zm-8-12.409H.866a.65.65,0,0,0-.476.224.614.614,0,0,0-.142.455A11.742,11.742,0,0,0,2.062,9.663a11.592,11.592,0,0,0,3.547,3.549,11.75,11.75,0,0,0,5.107,1.818.562.562,0,0,0,.487-.183.614.614,0,0,0,.181-.44V12.52a.623.623,0,0,0-.536-.632,8.606,8.606,0,0,1-1.879-.468.622.622,0,0,0-.659.139l-.789.789a.624.624,0,0,1-.748.1A10.59,10.59,0,0,1,2.8,8.479a.622.622,0,0,1,.1-.748l.791-.791a.621.621,0,0,0,.138-.654A8.63,8.63,0,0,1,3.362,4.4.623.623,0,0,0,2.747,3.868ZM10.137,8.2a.623.623,0,0,1-.61-.5A2.48,2.48,0,0,0,7.559,5.725.623.623,0,1,1,7.8,4.5a3.721,3.721,0,0,1,2.952,2.952.623.623,0,0,1-.492.73A.609.609,0,0,1,10.137,8.2Zm2.491-.007a.623.623,0,0,1-.618-.553,4.955,4.955,0,0,0-4.4-4.395A.622.622,0,1,1,7.747,2a6.2,6.2,0,0,1,5.5,5.493.623.623,0,0,1-.55.688A.657.657,0,0,1,12.628,8.19Z" transform="translate(1 -2)" fill="#cc8b65"/>
</svg>
