<svg xmlns="http://www.w3.org/2000/svg" width="12.468" height="15.585" viewBox="0 0 12.468 15.585">
  <g id="pin-icon" transform="translate(-782 -5044)">
    <path id="Path_472" data-name="Path 472" d="M10.234,2A6.234,6.234,0,0,0,4,8.172C4,12.442,9.494,17.2,9.728,17.4a.779.779,0,0,0,1.013,0c.273-.2,5.728-4.956,5.728-9.227A6.234,6.234,0,0,0,10.234,2Zm0,13.754c-1.3-1.239-4.676-4.676-4.676-7.582a4.676,4.676,0,0,1,9.351,0C14.91,11.055,11.536,14.515,10.234,15.754Z" transform="translate(778 5042)" fill="#cc8b65"/>
    <path id="Path_473" data-name="Path 473" d="M11.227,6a2.727,2.727,0,1,0,2.727,2.727A2.727,2.727,0,0,0,11.227,6Zm0,3.9A1.169,1.169,0,1,1,12.4,8.727,1.169,1.169,0,0,1,11.227,9.9Z" transform="translate(777.007 5041.117)" fill="#cc8b65"/>
  </g>
</svg>
