<svg xmlns="http://www.w3.org/2000/svg" width="21.979" height="18.165" viewBox="0 0 21.979 18.165">
  <g id="sections-icon" transform="translate(45.922 -98.888) rotate(90)">
    <path id="Path_3200" data-name="Path 3200" d="M384.726,78.283h6.463l-.692-.692v6.617c0,.307-.006.615,0,.922v.013a.692.692,0,1,0,1.385,0V78.525c0-.307.006-.615,0-.922V77.59a.7.7,0,0,0-.692-.692h-6.463a.692.692,0,1,0,0,1.385Z" transform="translate(-274.831 -47.403)" fill="#cc8b65"/>
    <path id="Path_3201" data-name="Path 3201" d="M505.917,287.083h1.7l-.692-.692v6.567c0,.3-.008.606,0,.908,0,0,0,.009,0,.013l.692-.692h-2.094a.692.692,0,1,0,0,1.385h2.094a.7.7,0,0,0,.692-.692v-6.567c0-.3.006-.606,0-.908v-.013a.7.7,0,0,0-.692-.692h-1.7a.692.692,0,0,0,0,1.385Z" transform="translate(-391.258 -248.651)" fill="#cc8b65"/>
    <path id="Path_3202" data-name="Path 3202" d="M160.711,37.047h-3.767l.692.692V25.78c0-.375.008-.751,0-1.126,0-.005,0-.011,0-.016l-.692.692h7.223c.333,0,.667.008,1,0h.014l-.692-.692V36.6c0,.375-.006.751,0,1.126v.016a.692.692,0,0,0,1.385,0V25.78c0-.375.006-.751,0-1.126v-.016a.7.7,0,0,0-.692-.692h-7.223c-.333,0-.667-.006-1,0h-.014a.7.7,0,0,0-.692.692V36.6c0,.375-.006.751,0,1.126v.016a.7.7,0,0,0,.692.692h3.767a.692.692,0,1,0,0-1.385Z" transform="translate(-55.286 0)" fill="#cc8b65"/>
    <path id="Path_3203" data-name="Path 3203" d="M159.775,201.982h-2.76l.692.692v-3.142l-.692.692h3.947a.692.692,0,0,0,0-1.385h-3.947a.7.7,0,0,0-.692.692v3.142a.7.7,0,0,0,.692.692h2.76a.692.692,0,1,0,0-1.385Z" transform="translate(-55.356 -164.934)" fill="#cc8b65"/>
    <path id="Path_3204" data-name="Path 3204" d="M319.225,243.547l1.321,1.272.266.256c.015.014.029.029.044.043a.773.773,0,0,0,.522.2c.313,0,.625,0,.938,0h.91a.692.692,0,1,0,0-1.385h-1.88l.49.2-1.428-1.375-.2-.2a.693.693,0,0,0-.979.979Z" transform="translate(-212.176 -206.888)" fill="#cc8b65"/>
    <path id="Path_3205" data-name="Path 3205" d="M104.733,290.665v3.223l.692-.692H99.584l.692.692V287.32c0-.3.008-.606,0-.908,0,0,0-.009,0-.013l-.692.692h5.842l-.692-.692v.624l.2-.49-1.59,1.537-.222.215a.692.692,0,0,0,.979.979l.892-.862c.306-.3.623-.584.92-.889a.943.943,0,0,0,.2-.744v-.37a.7.7,0,0,0-.692-.692H99.583a.7.7,0,0,0-.692.692v6.567c0,.3-.006.606,0,.908v.013a.7.7,0,0,0,.692.692h5.842a.7.7,0,0,0,.692-.692v-3.223a.692.692,0,1,0-1.384,0Z" transform="translate(0 -248.659)" fill="#cc8b65"/>
    <path id="Path_3206" data-name="Path 3206" d="M268.091,405.19l-2.08,1.657-.3.236.49-.2h-5.027l.692.692V404.35a.692.692,0,1,0-1.385,0v3.223a.7.7,0,0,0,.692.692H266.2a1.176,1.176,0,0,0,.188-.025.87.87,0,0,0,.31-.182l.15-.12.735-.586c.486-.387.977-.767,1.457-1.161l.029-.023a.692.692,0,0,0,.2-.49.7.7,0,0,0-.2-.49.7.7,0,0,0-.49-.2.8.8,0,0,0-.49.2Z" transform="translate(-155.752 -362.343)" fill="#cc8b65"/>
  </g>
</svg>
