<svg id="stories-icon" xmlns="http://www.w3.org/2000/svg" width="19.642" height="19.689" viewBox="0 0 19.642 19.689">
  <path id="Path_3207" data-name="Path 3207" d="M149.786,98.717l-7.826,6.292a.16.16,0,0,0-.061.123v9.122a1.235,1.235,0,0,0,1.228,1.228h13.5a1.231,1.231,0,0,0,1.228-1.228v-9.128A.138.138,0,0,0,157.8,105l-7.82-6.286a.149.149,0,0,0-.2,0Zm3.763,10.036c0,1.872-3.137,3.419-3.615,3.646a.143.143,0,0,1-.123,0c-.485-.227-3.628-1.774-3.628-3.646,0-1.977,1.921-3.591,3.566-1.375a.143.143,0,0,0,.239,0c1.639-2.2,3.56-.712,3.56,1.375Z" transform="translate(-140.061 -95.792)" fill="#cc8b65"/>
  <path id="Path_3208" data-name="Path 3208" d="M95,31.771l8.827-7.1,8.821,7.1a.614.614,0,1,0,.767-.958l-1.086-.872V25.534a.307.307,0,0,0-.307-.307h-2.455a.307.307,0,0,0-.307.307v1.937l-4.77-3.84a1.07,1.07,0,0,0-1.326,0l-8.931,7.182a.615.615,0,0,0-.092.866.608.608,0,0,0,.859.092Z" transform="translate(-94.006 -23.401)" fill="#cc8b65"/>
</svg>
